Results
version=1
nRows=26
nColumns=24
inDegrees=yes
endheader
time	pelvis_tilt	pelvis_list	pelvis_rotation	pelvis_tx	pelvis_ty	pelvis_tz	hip_flexion_r	hip_adduction_r	hip_rotation_r	knee_angle_r	ankle_angle_r	subtalar_angle_r	mtp_angle_r	hip_flexion_l	hip_adduction_l	hip_rotation_l	knee_angle_l	ankle_angle_l	subtalar_angle_l	mtp_angle_l	lumbar_extension	lumbar_bending	lumbar_rotation
      0.84583333	      2.11352041	     -2.80801965	     -3.60488151	     -0.50680526	      1.02189921	      0.31773845	      9.29591185	      5.84034471	     -1.04173527	    -13.86957565	     -4.46518384	    -12.70588704	     -6.30856362	     15.73159842	     -9.26296001	     -9.54076452	    -69.82528408	     -0.35909252	    -14.48009611	     -2.78762001	    -13.51707468	      3.79075164	      8.16075885
      0.85000000	      2.09729591	     -2.77450189	     -3.77076432	     -0.50169572	      1.02267389	      0.31822088	      8.86436766	      5.83149632	     -0.89495525	    -13.61528595	     -4.37591736	    -12.66485289	     -6.29416359	     16.29442926	     -9.26551478	     -9.63128566	    -69.47891895	     -0.15751309	    -14.37950539	     -2.80591856	    -13.52428388	      3.70278494	      8.41048009
      0.85416667	      2.13889473	     -2.71719221	     -4.01100707	     -0.49659723	      1.02354836	      0.31886782	      8.37260917	      5.81011640	     -0.64456532	    -13.36550002	     -4.27223539	    -12.66938672	     -6.26452033	     16.73818075	     -9.26894631	     -9.82635103	    -69.02303293	     -0.00939113	    -14.30989600	     -2.84313086	    -13.60164085	      3.57722249	      8.71201875
      0.85833333	      2.11388919	     -2.69598856	     -4.10962603	     -0.49149291	      1.02425715	      0.31914345	      7.94304201	      5.79159685	     -0.56869851	    -13.09405708	     -4.18667781	    -12.62977309	     -6.26115240	     17.29838711	     -9.25026011	     -9.85301857	    -68.55116151	      0.12445742	    -14.31359117	     -2.84440963	    -13.60100926	      3.53919801	      8.74186128
      0.86250000	      2.22073292	     -2.62257458	     -4.33081748	     -0.48631281	      1.02521658	      0.31967309	      7.37340629	      5.72201258	     -0.40944987	    -12.83119501	     -4.08358517	    -12.52834238	     -6.23243421	     17.61449810	     -9.22076569	    -10.06076120	    -67.93496087	      0.31702013	    -14.16393183	     -2.86411114	    -13.73581357	      3.39492284	      9.07400924
      0.86666667	      2.18875675	     -2.61475176	     -4.43094329	     -0.48117001	      1.02584627	      0.31994031	      6.94691531	      5.71372698	     -0.34303549	    -12.55522147	     -4.00711209	    -12.48974942	     -6.22858220	     18.13814101	     -9.22089351	    -10.10883558	    -67.33805347	      0.44435532	    -14.18115395	     -2.86561586	    -13.71714493	      3.37145886	      9.10269923
      0.87083333	      2.40821826	     -2.49657605	     -4.71720655	     -0.47597739	      1.02698228	      0.32062083	      6.25435782	      5.59147616	     -0.10874938	    -12.28413186	     -3.90857643	    -12.38465367	     -6.19274618	     18.24228915	     -9.16237725	    -10.43376663	    -66.52990780	      0.57492655	    -14.06887082	     -2.88525961	    -13.98525335	      3.12364481	      9.47534274
      0.87500000	      2.36632550	     -2.51009119	     -4.81640366	     -0.47079105	      1.02753035	      0.32085285	      5.83545398	      5.59911712	     -0.06016360	    -12.00811556	     -3.83443684	    -12.34585461	     -6.18848237	     18.73002149	     -9.18811450	    -10.49980627	    -65.81250643	      0.69748750	    -14.08921833	     -2.88704280	    -13.94556197	      3.14435721	      9.50504959
      0.87916667	      2.65388312	     -2.38435120	     -5.13918569	     -0.46559369	      1.02873384	      0.32161544	      5.06376840	      5.45947142	      0.22776879	    -11.71992451	     -3.75063641	    -12.24121112	     -6.14631327	     18.69199382	     -9.13401203	    -10.89933805	    -64.85259790	      0.79389063	    -14.00988467	     -2.90928850	    -14.29555725	      2.85961155	      9.89414514
      0.88333333	      2.81855988	     -2.34525088	     -5.36160390	     -0.46037329	      1.02962667	      0.32215060	      4.41618526	      5.40523734	      0.40755233	    -11.42610114	     -3.70626275	    -12.22595647	     -6.10566580	     18.82516118	     -9.14616670	    -11.16910406	    -63.91562188	      0.88718934	    -13.97973219	     -2.93121071	    -14.48990949	      2.73985113	     10.12004656
      0.88750000	      2.94208874	     -2.29705740	     -5.58466084	     -0.45514728	      1.03040568	      0.32265753	      3.82723908	      5.33594691	      0.57273193	    -11.16337395	     -3.59896363	    -12.13078627	     -6.06617265	     18.98422011	     -9.14818466	    -11.44547262	    -62.92622784	      0.96951414	    -13.96495217	     -2.95396693	    -14.63629556	      2.60902043	     10.33392421
      0.89166667	      3.09621869	     -2.25478193	     -5.81244112	     -0.44990922	      1.03120584	      0.32318673	      3.19798829	      5.26867504	      0.75926527	    -10.88548286	     -3.52242978	    -12.07990275	     -6.02737261	     19.07861810	     -9.15750704	    -11.74257378	    -61.87051353	      1.03710845	    -13.95579990	     -2.98165854	    -14.81874640	      2.47666876	     10.55400711
      0.89583333	      3.26978233	     -2.22148883	     -6.04636488	     -0.44468026	      1.03199107	      0.32371954	      2.55069745	      5.20347318	      0.95268261	    -10.61298341	     -3.43280642	    -12.00697651	     -5.99021162	     19.12602330	     -9.17717868	    -12.05878724	    -60.75693270	      1.09658855	    -13.94764044	     -3.01451047	    -15.02171376	      2.35021784	     10.78306286
      0.90000000	      3.39839232	     -2.19245860	     -6.28343589	     -0.43942930	      1.03266006	      0.32426061	      1.95652246	      5.14482482	      1.15649120	    -10.35376579	     -3.33777068	    -11.95287001	     -5.95683136	     19.20073710	     -9.20735548	    -12.38573019	    -59.59741030	      1.13865239	    -13.95742057	     -3.05344339	    -15.17053508	      2.22979844	     11.00255393
      0.90416667	      3.57868315	     -2.17424378	     -6.53071061	     -0.43418495	      1.03336245	      0.32483128	      1.30598355	      5.08804568	      1.37274573	    -10.09402642	     -3.24697181	    -11.90505864	     -5.92650844	     19.18583016	     -9.25064874	    -12.74486275	    -58.37582097	      1.17763507	    -13.95838058	     -3.09968605	    -15.37855924	      2.10788891	     11.24519215
      0.90833333	      3.70485805	     -2.17286741	     -6.77333457	     -0.42894071	      1.03392643	      0.32539176	      0.71560466	      5.05252415	      1.60476442	     -9.84129334	     -3.15608901	    -11.86881813	     -5.90084281	     19.21645473	     -9.31628728	    -13.10231670	    -57.12083415	      1.19403321	    -13.98324236	     -3.15478893	    -15.53063263	      2.01342044	     11.47575968
      0.91250000	      3.85024625	     -2.18086575	     -7.01802017	     -0.42368924	      1.03446925	      0.32595578	      0.10655032	      5.01940433	      1.83465953	     -9.59530033	     -3.05742503	    -11.83509459	     -5.88111761	     19.19843143	     -9.39083253	    -13.47997929	    -55.81396391	      1.20753332	    -14.00410801	     -3.21837360	    -15.69973642	      1.92191166	     11.71285836
      0.91666667	      3.97189804	     -2.19390368	     -7.26723706	     -0.41843336	      1.03492978	      0.32652070	     -0.47191140	      4.98988387	      2.07879451	     -9.36208843	     -2.94791327	    -11.80455506	     -5.86678307	     19.18211708	     -9.47215781	    -13.87256630	    -54.45854378	      1.20300501	    -14.04730027	     -3.29137592	    -15.84031220	      1.83824871	     11.95073549
      0.92083333	      4.07167427	     -2.22865281	     -7.50980074	     -0.41314498	      1.03529989	      0.32708014	     -1.02911775	      4.98158579	      2.30216341	     -9.13124770	     -2.85782894	    -11.78478726	     -5.85910041	     19.16936508	     -9.58200503	    -14.27919070	    -53.06964589	      1.18646548	    -14.08846673	     -3.36871013	    -15.95292512	      1.77454070	     12.17014931
      0.92500000	      4.15547295	     -2.28018233	     -7.74662321	     -0.40790050	      1.03558446	      0.32761336	     -1.56420798	      4.99057519	      2.56472826	     -8.91504029	     -2.73605236	    -11.76220802	     -5.85751680	     19.15975989	     -9.70152425	    -14.67318004	    -51.64537709	      1.16821523	    -14.13464104	     -3.45726349	    -16.06104648	      1.73999245	     12.40718975
      0.92916667	      4.21777456	     -2.34503702	     -7.97877173	     -0.40263630	      1.03578291	      0.32812931	     -2.07527374	      5.01096091	      2.80631766	     -8.70381763	     -2.62082125	    -11.74692486	     -5.86253535	     19.15225115	     -9.83702434	    -15.08272163	    -50.18245341	      1.13415503	    -14.18853436	     -3.55156548	    -16.13993541	      1.72499826	     12.61860772
      0.93333333	      4.27252639	     -2.42982427	     -8.20360390	     -0.39737347	      1.03591162	      0.32863180	     -2.57920288	      5.04956816	      3.04353903	     -8.49733525	     -2.49980094	    -11.72454775	     -5.87409716	     19.13565135	     -9.99272198	    -15.50145412	    -48.68799953	      1.08996155	    -14.23556702	     -3.65569463	    -16.21851118	      1.73162016	     12.84097085
      0.93750000	      4.30591922	     -2.53701926	     -8.41677607	     -0.39211352	      1.03594591	      0.32909876	     -3.05554001	      5.11158866	      3.26904574	     -8.30902299	     -2.38084561	    -11.70570114	     -5.89198276	     19.12704465	    -10.16707783	    -15.91538368	    -47.16336542	      1.03114435	    -14.29110312	     -3.76239271	    -16.25955222	      1.76422391	     13.03461495
      0.94166667	      4.34879804	     -2.67343880	     -8.62979556	     -0.38687166	      1.03593855	      0.32958016	     -3.55210272	      5.20165906	      3.52206376	     -8.10913102	     -2.23948579	    -11.70353091	     -5.92825280	     19.08932694	    -10.37649686	    -16.35310552	    -45.61469022	      0.98907730	    -14.26455684	     -3.91911355	    -16.34581113	      1.83639685	     13.32235495
      0.94583333	      4.21539896	     -2.82826964	     -8.72776496	     -0.38157038	      1.03556743	      0.32972392	     -3.85347679	      5.32806641	      3.61539664	     -7.92645264	     -2.13985352	    -11.64152539	     -5.93948445	     19.28614914	    -10.56451902	    -16.62923890	    -44.08311786	      0.90129406	    -14.34139576	     -3.97068733	    -16.22485727	      2.01196060	     13.34502198
      0.95000000	      4.26707915	     -2.96557526	     -8.99645696	     -0.37632724	      1.03549711	      0.33031161	     -4.34722718	      5.41014130	      3.92616863	     -7.76357908	     -1.94618625	    -11.63589172	     -5.99322355	     19.16831981	    -10.78732811	    -17.17654919	    -42.43921856	      0.85686843	    -14.32006366	     -4.14543211	    -16.30215156	      2.04570908	     13.69109971
